<svg width="26" height="26" viewBox="0 0 26 26" fill="none" xmlns="http://www.w3.org/2000/svg">
  <g opacity="1">
    <path fill-rule="evenodd" clip-rule="evenodd" d="M22.5564 15.229C21.9898 15.0275 21.3723 15.3233 21.1741 15.8888C19.9521 19.3446 16.6663 21.6662 13.0003 21.6662C8.22174 21.6662 4.33366 17.7792 4.33366 12.9995C4.33366 9.33353 6.65524 6.04778 10.1111 4.82578C10.6755 4.62753 10.9712 4.00894 10.7719 3.44453C10.5726 2.88119 9.95399 2.58436 9.38958 2.78478C5.06924 4.31119 2.16699 8.41594 2.16699 12.9995C2.16699 18.973 7.02683 23.8329 13.0003 23.8329C17.5839 23.8329 21.6887 20.9317 23.2162 16.6103C23.4155 16.0469 23.1208 15.4284 22.5564 15.229ZM15.1667 10.8333V4.41021C18.4827 4.88688 21.1131 7.51613 21.5897 10.8333H15.1667ZM14.0833 2.16663C13.4853 2.16663 13 2.65088 13 3.24996V11.9166C13 12.5157 13.4853 13 14.0833 13H22.75C23.348 13 23.8333 12.5157 23.8333 11.9166C23.8333 6.54004 19.4588 2.16663 14.0833 2.16663Z" fill="#000000"/>
  </g>
</svg>
